ISO-10303-21;
HEADER;
FILE_DESCRIPTION (( 'STEP AP214' ),
    '1' );
FILE_NAME ('ClosetRodAssembly.STEP',
    '2026-08-13T19:51:02',
    ( '' ),
    ( '' ),
    'SwSTEP 2.0',
    'SolidWorks 2026',
    '' );
FILE_SCHEMA (( 'AUTOMOTIVE_DESIGN' ));
ENDSEC;

DATA;
#1 = CARTESIAN_POINT ( 'NONE',  ( 1.000000000000000000, 2.000000000000000000, -0.6250000000000000000 ) ) ;
#2 = VECTOR ( 'NONE', #416, 39.37007874015748143 ) ;
#3 = AXIS2_PLACEMENT_3D ( 'NONE', #46, #559, #188 ) ;
#4 = VERTEX_POINT ( 'NONE', #165 ) ;
#5 = CARTESIAN_POINT ( 'NONE',  ( 0.000000000000000000, 2.000000000000000000, -20.00000000000000000 ) ) ;
#6 = SHAPE_REPRESENTATION_RELATIONSHIP ( 'NONE' , 'NONE' ,  #243, #64 ) ;
#7 = DIRECTION ( 'NONE',  ( 0.000000000000000000, -1.000000000000000000, 0.000000000000000000 ) ) ;
#8 = CARTESIAN_POINT ( 'NONE',  ( 1.000000000000000000, 0.000000000000000000, -0.6250000000000000000 ) ) ;
#9 = APPLICATION_CONTEXT ( 'automotive_design' ) ;
#10 = DIRECTION ( 'NONE',  ( 0.000000000000000000, 0.000000000000000000, 1.000000000000000000 ) ) ;
#11 = CARTESIAN_POINT ( 'NONE',  ( -0.7500000000000004441, 0.6169481339626534666, 0.1000000000000000056 ) ) ;
#12 = CIRCLE ( 'NONE', #195, 0.6250000000000001110 ) ;
#13 = SHAPE_REPRESENTATION ( 'ClosetRodBearing', ( #551 ), #419 ) ;
#14 = PLANE ( 'NONE',  #540 ) ;
#15 = DIRECTION ( 'NONE',  ( 1.000000000000000000, 0.000000000000000000, 0.000000000000000000 ) ) ;
#16 = PRODUCT_DEFINITION_SHAPE ( 'NONE', 'NONE',  #41 ) ;
#17 = DIRECTION ( 'NONE',  ( -1.000000000000000000, -0.000000000000000000, -0.000000000000000000 ) ) ;
#18 = LINE ( 'NONE', #63, #318 ) ;
#19 = ORIENTED_EDGE ( 'NONE', *, *, #349, .T. ) ;
#20 = AXIS2_PLACEMENT_3D ( 'NONE', #277, #469, #230 ) ;
#21 = VECTOR ( 'NONE', #75, 39.37007874015748143 ) ;
#22 = ORIENTED_EDGE ( 'NONE', *, *, #558, .T. ) ;
#23 =( CONVERSION_BASED_UNIT ( 'INCH', #436 ) LENGTH_UNIT ( ) NAMED_UNIT ( #50 ) );
#24 = SURFACE_STYLE_FILL_AREA ( #306 ) ;
#25 = ORIENTED_EDGE ( 'NONE', *, *, #35, .F. ) ;
#26 = EDGE_CURVE ( 'NONE', #204, #535, #12, .T. ) ;
#27 = VERTEX_POINT ( 'NONE', #266 ) ;
#28 = EDGE_LOOP ( 'NONE', ( #533, #91, #32, #360 ) ) ;
#29 = ORIENTED_EDGE ( 'NONE', *, *, #252, .F. ) ;
#30 = DIRECTION ( 'NONE',  ( 1.000000000000000000, 0.000000000000000000, 0.000000000000000000 ) ) ;
#31 = ORIENTED_EDGE ( 'NONE', *, *, #538, .T. ) ;
#32 = ORIENTED_EDGE ( 'NONE', *, *, #148, .T. ) ;
#33 = DIRECTION ( 'NONE',  ( 0.000000000000000000, 1.243449787580175325E-14, -1.000000000000000000 ) ) ;
#34 = APPLICATION_PROTOCOL_DEFINITION ( 'draft international standard', 'automotive_design', 1998, #61 ) ;
#35 = EDGE_CURVE ( 'NONE', #164, #53, #399, .T. ) ;
#36 = CARTESIAN_POINT ( 'NONE',  ( 0.000000000000000000, 2.000000000000000000, 20.00000000000000000 ) ) ;
#37 = CARTESIAN_POINT ( 'NONE',  ( 1.000000000000000000, 2.000000000000000000, -20.00000000000000000 ) ) ;
#38 = PLANE ( 'NONE',  #308 ) ;
#39 = DIMENSIONAL_EXPONENTS ( 1.000000000000000000, 0.000000000000000000, 0.000000000000000000, 0.000000000000000000, 0.000000000000000000, 0.000000000000000000, 0.000000000000000000 ) ;
#40 =( REPRESENTATION_RELATIONSHIP ('NONE','NONE', #466, #13 ) REPRESENTATION_RELATIONSHIP_WITH_TRANSFORMATION ( #548 )SHAPE_REPRESENTATION_RELATIONSHIP( ) );
#41 = PRODUCT_DEFINITION ( 'UNKNOWN', '', #60, #70 ) ;
#42 = ADVANCED_FACE ( 'NONE', ( #549 ), #172, .F. ) ;
#43 = CARTESIAN_POINT ( 'NONE',  ( 61.09964842644654937, 43.80588713794376332, 58.65622898145576869 ) ) ;
#44 = ORIENTED_EDGE ( 'NONE', *, *, #426, .F. ) ;
#45 = LINE ( 'NONE', #131, #418 ) ;
#46 = CARTESIAN_POINT ( 'NONE',  ( 0.000000000000000000, 0.000000000000000000, 0.000000000000000000 ) ) ;
#47 = DIRECTION ( 'NONE',  ( 1.000000000000000000, 0.000000000000000000, 0.000000000000000000 ) ) ;
#48 = DIRECTION ( 'NONE',  ( 1.000000000000000000, 0.000000000000000000, 0.000000000000000000 ) ) ;
#49 = CARTESIAN_POINT ( 'NONE',  ( 1.000000000000000000, 2.000000000000000000, 20.00000000000000000 ) ) ;
#50 = DIMENSIONAL_EXPONENTS ( 1.000000000000000000, 0.000000000000000000, 0.000000000000000000, 0.000000000000000000, 0.000000000000000000, 0.000000000000000000, 0.000000000000000000 ) ;
#51 = SURFACE_STYLE_FILL_AREA ( #331 ) ;
#52 = DIRECTION ( 'NONE',  ( 0.000000000000000000, 0.000000000000000000, -1.000000000000000000 ) ) ;
#53 = VERTEX_POINT ( 'NONE', #85 ) ;
#54 =( LENGTH_UNIT ( ) NAMED_UNIT ( * ) SI_UNIT ( $, .METRE. ) );
#55 = CYLINDRICAL_SURFACE ( 'NONE', #595, 0.6250000000000001110 ) ;
#56 = DIRECTION ( 'NONE',  ( 0.000000000000000000, 0.000000000000000000, -1.000000000000000000 ) ) ;
#57 = DIRECTION ( 'NONE',  ( 0.000000000000000000, 0.000000000000000000, 1.000000000000000000 ) ) ;
#58 = MECHANICAL_DESIGN_GEOMETRIC_PRESENTATION_REPRESENTATION (  '', ( #118 ), #506 ) ;
#59 = ADVANCED_FACE ( 'NONE', ( #503 ), #38, .T. ) ;
#60 = PRODUCT_DEFINITION_FORMATION_WITH_SPECIFIED_SOURCE ( 'ANY', '', #199, .NOT_KNOWN. ) ;
#61 = APPLICATION_CONTEXT ( 'automotive_design' ) ;
#62 = CARTESIAN_POINT ( 'NONE',  ( 0.000000000000000000, 0.000000000000000000, -0.6250000000000001110 ) ) ;
#63 = CARTESIAN_POINT ( 'NONE',  ( -62.00000000000000000, 0.6169481339626534666, -0.1000000000000000056 ) ) ;
#64 = ADVANCED_BREP_SHAPE_REPRESENTATION ( '', ( #440, #551 ), #501 ) ;
#65 = DIRECTION ( 'NONE',  ( 1.000000000000000000, 0.000000000000000000, 0.000000000000000000 ) ) ;
#66 = PLANE ( 'NONE',  #365 ) ;
#67 = EDGE_LOOP ( 'NONE', ( #493, #74, #590, #494 ) ) ;
#68 = PRODUCT_RELATED_PRODUCT_CATEGORY ( 'part', '', ( #199 ) ) ;
#69 = ORIENTED_EDGE ( 'NONE', *, *, #368, .T. ) ;
#70 = PRODUCT_DEFINITION_CONTEXT ( 'detailed design', #141, 'design' ) ;
#71 = FACE_OUTER_BOUND ( 'NONE', #79, .T. ) ;
#72 = ORIENTED_EDGE ( 'NONE', *, *, #82, .T. ) ;
#73 = AXIS2_PLACEMENT_3D ( 'NONE', #573, #581, #119 ) ;
#74 = ORIENTED_EDGE ( 'NONE', *, *, #239, .F. ) ;
#75 = DIRECTION ( 'NONE',  ( -1.000000000000000000, -0.000000000000000000, -0.000000000000000000 ) ) ;
#76 = ORIENTED_EDGE ( 'NONE', *, *, #214, .T. ) ;
#77 = ORIENTED_EDGE ( 'NONE', *, *, #295, .T. ) ;
#78 = CARTESIAN_POINT ( 'NONE',  ( -62.00000000000000000, 0.000000000000000000, 0.000000000000000000 ) ) ;
#79 = EDGE_LOOP ( 'NONE', ( #305, #300, #592, #207, #542, #435, #596, #439 ) ) ;
#80 = ORIENTED_EDGE ( 'NONE', *, *, #26, .T. ) ;
#81 = LINE ( 'NONE', #600, #186 ) ;
#82 = EDGE_CURVE ( 'NONE', #441, #27, #553, .T. ) ;
#83 = VECTOR ( 'NONE', #429, 39.37007874015748143 ) ;
#84 = DIRECTION ( 'NONE',  ( 0.000000000000000000, 0.000000000000000000, -1.000000000000000000 ) ) ;
#85 = CARTESIAN_POINT ( 'NONE',  ( 1.000000000000000000, 2.000000000000000000, 0.6250000000000000000 ) ) ;
#86 = PLANE ( 'NONE',  #218 ) ;
#87 = ADVANCED_FACE ( 'NONE', ( #226 ), #407, .F. ) ;
#88 = CYLINDRICAL_SURFACE ( 'NONE', #156, 0.6250000000000000000 ) ;
#89 = VECTOR ( 'NONE', #315, 39.37007874015748143 ) ;
#90 = AXIS2_PLACEMENT_3D ( 'NONE', #192, #144, #52 ) ;
#91 = ORIENTED_EDGE ( 'NONE', *, *, #349, .F. ) ;
#92 = DIRECTION ( 'NONE',  ( 1.000000000000000000, 0.000000000000000000, 0.000000000000000000 ) ) ;
#93 = DIRECTION ( 'NONE',  ( 0.000000000000000000, 0.000000000000000000, -1.000000000000000000 ) ) ;
#94 =( CONVERSION_BASED_UNIT ( 'INCH', #101 ) LENGTH_UNIT ( ) NAMED_UNIT ( #555 ) );
#95 = LINE ( 'NONE', #1, #248 ) ;
#96 = EDGE_CURVE ( 'NONE', #113, #162, #499, .T. ) ;
#97 =( LENGTH_UNIT ( ) NAMED_UNIT ( * ) SI_UNIT ( $, .METRE. ) );
#98 = COLOUR_RGB ( '',0.7921568627450980005, 0.8196078431372548767, 0.9333333333333333481 ) ;
#99 = PLANE ( 'NONE',  #437 ) ;
#100 = AXIS2_PLACEMENT_3D ( 'NONE', #209, #585, #534 ) ;
#101 = LENGTH_MEASURE_WITH_UNIT ( LENGTH_MEASURE( 0.02539999999999999897 ), #54 );
#102 = DIRECTION ( 'NONE',  ( 0.000000000000000000, 0.000000000000000000, -1.000000000000000000 ) ) ;
#103 = FACE_BOUND ( 'NONE', #490, .T. ) ;
#104 = CARTESIAN_POINT ( 'NONE',  ( 0.000000000000000000, -0.000000000000000000, 0.6250000000000000000 ) ) ;
#105 = EDGE_CURVE ( 'NONE', #316, #53, #454, .T. ) ;
#106 = CARTESIAN_POINT ( 'NONE',  ( -61.25000000000000000, 0.6169481339626534666, -0.1000000000000000056 ) ) ;
#107 = CIRCLE ( 'NONE', #90, 0.6250000000000001110 ) ;
#108 =( NAMED_UNIT ( * ) SI_UNIT ( $, .STERADIAN. ) SOLID_ANGLE_UNIT ( ) );
#109 = VERTEX_POINT ( 'NONE', #37 ) ;
#110 = ORIENTED_EDGE ( 'NONE', *, *, #213, .T. ) ;
#111 = DIRECTION ( 'NONE',  ( -1.000000000000000000, 0.000000000000000000, -0.000000000000000000 ) ) ;
#112 = CARTESIAN_POINT ( 'NONE',  ( 1.000000000000000000, 0.000000000000000000, -0.6250000000000000000 ) ) ;
#113 = VERTEX_POINT ( 'NONE', #123 ) ;
#114 = EDGE_LOOP ( 'NONE', ( #234, #29, #212, #392 ) ) ;
#115 = DIRECTION ( 'NONE',  ( 1.000000000000000000, -0.000000000000000000, 0.000000000000000000 ) ) ;
#116 = VERTEX_POINT ( 'NONE', #224 ) ;
#117 = CLOSED_SHELL ( 'NONE', ( #263, #42, #140, #597, #87, #472, #516, #404, #464, #602 ) ) ;
#118 = STYLED_ITEM ( 'NONE', ( #512 ), #242 ) ;
#119 = DIRECTION ( 'NONE',  ( 0.000000000000000000, -0.000000000000000000, 1.000000000000000000 ) ) ;
#120 = DIRECTION ( 'NONE',  ( 0.000000000000000000, 0.000000000000000000, 1.000000000000000000 ) ) ;
#121 = EDGE_LOOP ( 'NONE', ( #443, #583, #25, #22 ) ) ;
#122 = EDGE_LOOP ( 'NONE', ( #400, #215, #356, #582 ) ) ;
#123 = CARTESIAN_POINT ( 'NONE',  ( 1.000000000000000000, -10.00000000000000000, 20.00000000000000000 ) ) ;
#124 = ORIENTED_EDGE ( 'NONE', *, *, #125, .F. ) ;
#125 = EDGE_CURVE ( 'NONE', #279, #116, #276, .T. ) ;
#126 = PLANE ( 'NONE',  #326 ) ;
#127 = VECTOR ( 'NONE', #289, 39.37007874015748143 ) ;
#128 = LINE ( 'NONE', #375, #270 ) ;
#129 = EDGE_CURVE ( 'NONE', #546, #359, #282, .T. ) ;
#130 = CARTESIAN_POINT ( 'NONE',  ( 1.000000000000000000, 0.000000000000000000, 0.6250000000000000000 ) ) ;
#131 = CARTESIAN_POINT ( 'NONE',  ( 1.000000000000000000, 2.000000000000000000, -20.00000000000000000 ) ) ;
#132 = EDGE_LOOP ( 'NONE', ( #396, #394, #166, #487 ) ) ;
#133 = LENGTH_MEASURE_WITH_UNIT ( LENGTH_MEASURE( 0.02539999999999999897 ), #510 );
#134 = STYLED_ITEM ( 'NONE', ( #492 ), #440 ) ;
#135 = DIRECTION ( 'NONE',  ( -1.000000000000000000, -0.000000000000000000, -0.000000000000000000 ) ) ;
#136 = CARTESIAN_POINT ( 'NONE',  ( 1.000000000000000000, 2.000000000000000000, 20.00000000000000000 ) ) ;
#137 = UNCERTAINTY_MEASURE_WITH_UNIT (LENGTH_MEASURE( 1.000000000000000082E-05 ), #250, 'distance_accuracy_value', 'NONE');
#138 = DIRECTION ( 'NONE',  ( 1.000000000000000000, 0.000000000000000000, 0.000000000000000000 ) ) ;
#139 = LINE ( 'NONE', #153, #21 ) ;
#140 = ADVANCED_FACE ( 'NONE', ( #603 ), #86, .T. ) ;
#141 = APPLICATION_CONTEXT ( 'automotive_design' ) ;
#142 = CARTESIAN_POINT ( 'NONE',  ( -0.7500000000000004441, -0.6169481339626534666, -0.1000000000000000056 ) ) ;
#143 =( NAMED_UNIT ( * ) SI_UNIT ( $, .STERADIAN. ) SOLID_ANGLE_UNIT ( ) );
#144 = DIRECTION ( 'NONE',  ( 1.000000000000000000, 0.000000000000000000, 0.000000000000000000 ) ) ;
#145 = UNCERTAINTY_MEASURE_WITH_UNIT (LENGTH_MEASURE( 1.000000000000000082E-05 ), #508, 'distance_accuracy_value', 'NONE');
#146 = AXIS2_PLACEMENT_3D ( 'NONE', #544, #452, #449 ) ;
#147 = CARTESIAN_POINT ( 'NONE',  ( 0.000000000000000000, 0.000000000000000000, -0.6250000000000000000 ) ) ;
#148 = EDGE_CURVE ( 'NONE', #27, #109, #502, .T. ) ;
#149 = EDGE_CURVE ( 'NONE', #359, #444, #81, .T. ) ;
#150 = DIRECTION ( 'NONE',  ( 1.000000000000000000, 0.000000000000000000, 0.000000000000000000 ) ) ;
#151 = CARTESIAN_POINT ( 'NONE',  ( 1.000000000000000000, 0.000000000000000000, -20.00000000000000000 ) ) ;
#152 = LINE ( 'NONE', #342, #259 ) ;
#153 = CARTESIAN_POINT ( 'NONE',  ( 1.000000000000000000, 2.000000000000000000, 0.6250000000000000000 ) ) ;
#154 = DIRECTION ( 'NONE',  ( 0.000000000000000000, 0.000000000000000000, 1.000000000000000000 ) ) ;
#155 = CARTESIAN_POINT ( 'NONE',  ( 0.000000000000000000, 7.654042494670959086E-17, 0.6250000000000001110 ) ) ;
#156 = AXIS2_PLACEMENT_3D ( 'NONE', #459, #413, #579 ) ;
#157 = AXIS2_PLACEMENT_3D ( 'NONE', #564, #379, #138 ) ;
#158 = ORIENTED_EDGE ( 'NONE', *, *, #367, .F. ) ;
#159 = UNCERTAINTY_MEASURE_WITH_UNIT (LENGTH_MEASURE( 1.000000000000000082E-05 ), #94, 'distance_accuracy_value', 'NONE');
#160 = PLANE ( 'NONE',  #491 ) ;
#161 = SURFACE_SIDE_STYLE ('',( #24 ) ) ;
#162 = VERTEX_POINT ( 'NONE', #547 ) ;
#163 = ORIENTED_EDGE ( 'NONE', *, *, #149, .T. ) ;
#164 = VERTEX_POINT ( 'NONE', #130 ) ;
#165 = CARTESIAN_POINT ( 'NONE',  ( -0.7500000000000004441, 0.6169481339626534666, -0.1000000000000000056 ) ) ;
#166 = ORIENTED_EDGE ( 'NONE', *, *, #304, .F. ) ;
#167 = VECTOR ( 'NONE', #7, 39.37007874015748143 ) ;
#168 = ORIENTED_EDGE ( 'NONE', *, *, #486, .T. ) ;
#169 = PRODUCT_DEFINITION_FORMATION_WITH_SPECIFIED_SOURCE ( 'ANY', '', #291, .NOT_KNOWN. ) ;
#170 = APPLICATION_PROTOCOL_DEFINITION ( 'draft international standard', 'automotive_design', 1998, #274 ) ;
#171 = ADVANCED_FACE ( 'NONE', ( #455 ), #126, .F. ) ;
#172 = PLANE ( 'NONE',  #341 ) ;
#173 = VERTEX_POINT ( 'NONE', #36 ) ;
#174 = EDGE_LOOP ( 'NONE', ( #76, #541, #110, #496 ) ) ;
#175 = SHAPE_DEFINITION_REPRESENTATION ( #478, #243 ) ;
#176 = DIRECTION ( 'NONE',  ( -0.000000000000000000, 1.000000000000000000, 0.000000000000000000 ) ) ;
#177 = APPLICATION_PROTOCOL_DEFINITION ( 'draft international standard', 'automotive_design', 1998, #9 ) ;
#178 = CARTESIAN_POINT ( 'NONE',  ( 1.000000000000000000, 2.000000000000000000, 0.000000000000000000 ) ) ;
#179 = VECTOR ( 'NONE', #93, 39.37007874015748143 ) ;
#180 = PRODUCT_CONTEXT ( 'NONE', #274, 'mechanical' ) ;
#181 = DIRECTION ( 'NONE',  ( 0.000000000000000000, -0.000000000000000000, 1.000000000000000000 ) ) ;
#182 = SURFACE_SIDE_STYLE ('',( #51 ) ) ;
#183 = FILL_AREA_STYLE_COLOUR ( '', #98 ) ;
#184 =( NAMED_UNIT ( * ) PLANE_ANGLE_UNIT ( ) SI_UNIT ( $, .RADIAN. ) );
#185 =( REPRESENTATION_RELATIONSHIP ('NONE','NONE', #466, #243 ) REPRESENTATION_RELATIONSHIP_WITH_TRANSFORMATION ( #451 )SHAPE_REPRESENTATION_RELATIONSHIP( ) );
#186 = VECTOR ( 'NONE', #361, 39.37007874015748143 ) ;
#187 = EDGE_CURVE ( 'NONE', #546, #578, #222, .T. ) ;
#188 = DIRECTION ( 'NONE',  ( 1.000000000000000000, 0.000000000000000000, 0.000000000000000000 ) ) ;
#189 = LINE ( 'NONE', #474, #524 ) ;
#190 = DIRECTION ( 'NONE',  ( -1.000000000000000000, -0.000000000000000000, -0.000000000000000000 ) ) ;
#191 = DIRECTION ( 'NONE',  ( -1.000000000000000000, -0.000000000000000000, -0.000000000000000000 ) ) ;
#192 = CARTESIAN_POINT ( 'NONE',  ( 0.000000000000000000, 0.000000000000000000, 0.000000000000000000 ) ) ;
#193 = PRODUCT_DEFINITION ( 'UNKNOWN', '', #169, #208 ) ;
#194 = EDGE_CURVE ( 'NONE', #162, #537, #128, .T. ) ;
#195 = AXIS2_PLACEMENT_3D ( 'NONE', #606, #216, #33 ) ;
#196 = LINE ( 'NONE', #238, #355 ) ;
#197 = CIRCLE ( 'NONE', #327, 0.6250000000000001110 ) ;
#198 = LINE ( 'NONE', #380, #83 ) ;
#199 = PRODUCT ( 'ClosetRodBearing', 'ClosetRodBearing', '', ( #180 ) ) ;
#200 = DIRECTION ( 'NONE',  ( 0.000000000000000000, 0.000000000000000000, -1.000000000000000000 ) ) ;
#201 = FILL_AREA_STYLE_COLOUR ( '', #427 ) ;
#202 = DIRECTION ( 'NONE',  ( 0.000000000000000000, 0.000000000000000000, -1.000000000000000000 ) ) ;
#203 = FACE_OUTER_BOUND ( 'NONE', #28, .T. ) ;
#204 = VERTEX_POINT ( 'NONE', #507 ) ;
#205 = VECTOR ( 'NONE', #563, 39.37007874015748143 ) ;
#206 = MECHANICAL_DESIGN_GEOMETRIC_PRESENTATION_REPRESENTATION (  '', ( #134 ), #577 ) ;
#207 = ORIENTED_EDGE ( 'NONE', *, *, #304, .T. ) ;
#208 = PRODUCT_DEFINITION_CONTEXT ( 'detailed design', #526, 'design' ) ;
#209 = CARTESIAN_POINT ( 'NONE',  ( 1.000000000000000000, 0.000000000000000000, -20.00000000000000000 ) ) ;
#210 = VERTEX_POINT ( 'NONE', #5 ) ;
#211 = VERTEX_POINT ( 'NONE', #324 ) ;
#212 = ORIENTED_EDGE ( 'NONE', *, *, #362, .T. ) ;
#213 = EDGE_CURVE ( 'NONE', #116, #217, #554, .T. ) ;
#214 = EDGE_CURVE ( 'NONE', #262, #279, #370, .T. ) ;
#215 = ORIENTED_EDGE ( 'NONE', *, *, #278, .T. ) ;
#216 = DIRECTION ( 'NONE',  ( -1.000000000000000000, -0.000000000000000000, -0.000000000000000000 ) ) ;
#217 = VERTEX_POINT ( 'NONE', #561 ) ;
#218 = AXIS2_PLACEMENT_3D ( 'NONE', #405, #272, #181 ) ;
#219 = EDGE_LOOP ( 'NONE', ( #345, #348 ) ) ;
#220 = DIRECTION ( 'NONE',  ( 0.000000000000000000, -0.000000000000000000, 1.000000000000000000 ) ) ;
#221 = ITEM_DEFINED_TRANSFORMATION ( 'NONE', 'NONE', #525,  #551 ) ;
#222 = LINE ( 'NONE', #601, #523 ) ;
#223 = APPLICATION_PROTOCOL_DEFINITION ( 'draft international standard', 'automotive_design', 1998, #526 ) ;
#224 = CARTESIAN_POINT ( 'NONE',  ( -61.25000000000000000, -0.6169481339626534666, 0.1000000000000000056 ) ) ;
#225 = AXIS2_PLACEMENT_3D ( 'NONE', #337, #330, #569 ) ;
#226 = FACE_OUTER_BOUND ( 'NONE', #229, .T. ) ;
#227 = PRODUCT_DEFINITION_CONTEXT ( 'detailed design', #9, 'design' ) ;
#228 = EDGE_CURVE ( 'NONE', #4, #268, #550, .T. ) ;
#229 = EDGE_LOOP ( 'NONE', ( #498, #307, #258, #298 ) ) ;
#230 = DIRECTION ( 'NONE',  ( 0.000000000000000000, 1.243449787580175325E-14, 1.000000000000000000 ) ) ;
#231 =( NAMED_UNIT ( * ) SI_UNIT ( $, .STERADIAN. ) SOLID_ANGLE_UNIT ( ) );
#232 = LINE ( 'NONE', #151, #167 ) ;
#233 = VECTOR ( 'NONE', #353, 39.37007874015748143 ) ;
#234 = ORIENTED_EDGE ( 'NONE', *, *, #383, .F. ) ;
#235 = CARTESIAN_POINT ( 'NONE',  ( -62.00000000000000000, -0.6169481339626534666, -0.1000000000000000056 ) ) ;
#236 = VECTOR ( 'NONE', #424, 39.37007874015748143 ) ;
#237 = DIRECTION ( 'NONE',  ( 0.000000000000000000, 0.000000000000000000, 1.000000000000000000 ) ) ;
#238 = CARTESIAN_POINT ( 'NONE',  ( 1.000000000000000000, 0.000000000000000000, 20.00000000000000000 ) ) ;
#239 = EDGE_CURVE ( 'NONE', #316, #173, #415, .T. ) ;
#240 = DIRECTION ( 'NONE',  ( 1.000000000000000000, 0.000000000000000000, 0.000000000000000000 ) ) ;
#241 = CARTESIAN_POINT ( 'NONE',  ( 0.000000000000000000, -0.000000000000000000, -20.00000000000000000 ) ) ;
#242 = MANIFOLD_SOLID_BREP ( 'Boss-Extrude1', #117 ) ;
#243 = SHAPE_REPRESENTATION ( 'ClosetRod', ( #551 ), #501 ) ;
#244 = CARTESIAN_POINT ( 'NONE',  ( 1.000000000000000000, -10.00000000000000000, 20.00000000000000000 ) ) ;
#245 = DIRECTION ( 'NONE',  ( 1.000000000000000000, -0.000000000000000000, 0.000000000000000000 ) ) ;
#246 = AXIS2_PLACEMENT_3D ( 'NONE', #78, #30, #408 ) ;
#247 = DIRECTION ( 'NONE',  ( 1.000000000000000000, 0.000000000000000000, -0.000000000000000000 ) ) ;
#248 = VECTOR ( 'NONE', #374, 39.37007874015748143 ) ;
#249 = CARTESIAN_POINT ( 'NONE',  ( 0.000000000000000000, -10.00000000000000000, -20.00000000000000000 ) ) ;
#250 =( CONVERSION_BASED_UNIT ( 'INCH', #431 ) LENGTH_UNIT ( ) NAMED_UNIT ( #39 ) );
#251 = PRODUCT_DEFINITION_SHAPE ( 'NONE', 'NONE',  #453 ) ;
#252 = EDGE_CURVE ( 'NONE', #109, #210, #45, .T. ) ;
#253 = CARTESIAN_POINT ( 'NONE',  ( -0.7500000000000004441, 0.000000000000000000, 0.000000000000000000 ) ) ;
#254 = DIRECTION ( 'NONE',  ( 1.000000000000000000, -0.000000000000000000, 0.000000000000000000 ) ) ;
#255 = ORIENTED_EDGE ( 'NONE', *, *, #319, .T. ) ;
#256 = ORIENTED_EDGE ( 'NONE', *, *, #497, .F. ) ;
#257 = CARTESIAN_POINT ( 'NONE',  ( 1.000000000000000000, 0.000000000000000000, 0.000000000000000000 ) ) ;
#258 = ORIENTED_EDGE ( 'NONE', *, *, #96, .F. ) ;
#259 = VECTOR ( 'NONE', #17, 39.37007874015748143 ) ;
#260 = ORIENTED_EDGE ( 'NONE', *, *, #409, .T. ) ;
#261 = FACE_OUTER_BOUND ( 'NONE', #114, .T. ) ;
#262 = VERTEX_POINT ( 'NONE', #142 ) ;
#263 = ADVANCED_FACE ( 'NONE', ( #504 ), #88, .F. ) ;
#264 = EDGE_CURVE ( 'NONE', #113, #312, #290, .T. ) ;
#265 = ORIENTED_EDGE ( 'NONE', *, *, #383, .T. ) ;
#266 = CARTESIAN_POINT ( 'NONE',  ( 1.000000000000000000, 2.000000000000000000, -0.6250000000000000000 ) ) ;
#267 = EDGE_LOOP ( 'NONE', ( #351, #163, #158, #302 ) ) ;
#268 = VERTEX_POINT ( 'NONE', #11 ) ;
#269 = CARTESIAN_POINT ( 'NONE',  ( 1.000000000000000000, 0.000000000000000000, -0.6250000000000000000 ) ) ;
#270 = VECTOR ( 'NONE', #190, 39.37007874015748143 ) ;
#271 = SHAPE_DEFINITION_REPRESENTATION ( #16, #13 ) ;
#272 = DIRECTION ( 'NONE',  ( -0.000000000000000000, 1.000000000000000000, 0.000000000000000000 ) ) ;
#273 = CARTESIAN_POINT ( 'NONE',  ( 1.000000000000000000, 0.000000000000000000, 0.6250000000000000000 ) ) ;
#274 = APPLICATION_CONTEXT ( 'automotive_design' ) ;
#275 = CARTESIAN_POINT ( 'NONE',  ( 1.000000000000000000, 2.000000000000000000, 0.000000000000000000 ) ) ;
#276 = CIRCLE ( 'NONE', #146, 0.6250000000000001110 ) ;
#277 = CARTESIAN_POINT ( 'NONE',  ( -0.7500000000000004441, 0.000000000000000000, 0.000000000000000000 ) ) ;
#278 = EDGE_CURVE ( 'NONE', #359, #546, #197, .T. ) ;
#279 = VERTEX_POINT ( 'NONE', #281 ) ;
#280 = LINE ( 'NONE', #463, #2 ) ;
#281 = CARTESIAN_POINT ( 'NONE',  ( -61.25000000000000000, -0.6169481339626534666, -0.1000000000000000056 ) ) ;
#282 = CIRCLE ( 'NONE', #246, 0.6250000000000001110 ) ;
#283 = DIRECTION ( 'NONE',  ( -1.000000000000000000, -0.000000000000000000, -0.000000000000000000 ) ) ;
#284 = VECTOR ( 'NONE', #514, 39.37007874015748143 ) ;
#285 = CARTESIAN_POINT ( 'NONE',  ( -1.150351573553449747, 43.80588713794377043, 58.65622898145576869 ) ) ;
#286 = FACE_OUTER_BOUND ( 'NONE', #598, .T. ) ;
#287 = SHAPE_REPRESENTATION_RELATIONSHIP ( 'NONE' , 'NONE' ,  #13, #299 ) ;
#288 = CARTESIAN_POINT ( 'NONE',  ( 0.000000000000000000, 2.000000000000000000, 0.6250000000000000000 ) ) ;
#289 = DIRECTION ( 'NONE',  ( 0.000000000000000000, 1.000000000000000000, 0.000000000000000000 ) ) ;
#290 = LINE ( 'NONE', #244, #468 ) ;
#291 = PRODUCT ( 'ClosetRod', 'ClosetRod', '', ( #599 ) ) ;
#292 = CARTESIAN_POINT ( 'NONE',  ( -62.00000000000000000, 0.000000000000000000, 0.000000000000000000 ) ) ;
#293 = AXIS2_PLACEMENT_3D ( 'NONE', #477, #15, #467 ) ;
#294 =( LENGTH_UNIT ( ) NAMED_UNIT ( * ) SI_UNIT ( $, .METRE. ) );
#295 = EDGE_CURVE ( 'NONE', #444, #578, #560, .T. ) ;
#296 =( LENGTH_UNIT ( ) NAMED_UNIT ( * ) SI_UNIT ( $, .METRE. ) );
#297 =( NAMED_UNIT ( * ) PLANE_ANGLE_UNIT ( ) SI_UNIT ( $, .RADIAN. ) );
#298 = ORIENTED_EDGE ( 'NONE', *, *, #264, .T. ) ;
#299 = ADVANCED_BREP_SHAPE_REPRESENTATION ( '', ( #242, #551 ), #419 ) ;
#300 = ORIENTED_EDGE ( 'NONE', *, *, #35, .T. ) ;
#301 = CYLINDRICAL_SURFACE ( 'NONE', #410, 0.6250000000000001110 ) ;
#302 = ORIENTED_EDGE ( 'NONE', *, *, #187, .F. ) ;
#303 = APPLICATION_CONTEXT ( 'automotive_design' ) ;
#304 = EDGE_CURVE ( 'NONE', #316, #113, #196, .T. ) ;
#305 = ORIENTED_EDGE ( 'NONE', *, *, #475, .F. ) ;
#306 = FILL_AREA_STYLE ('',( #201 ) ) ;
#307 = ORIENTED_EDGE ( 'NONE', *, *, #194, .F. ) ;
#308 = AXIS2_PLACEMENT_3D ( 'NONE', #366, #322, #84 ) ;
#309 = VECTOR ( 'NONE', #332, 39.37007874015748143 ) ;
#310 = ORIENTED_EDGE ( 'NONE', *, *, #213, .F. ) ;
#311 = DIRECTION ( 'NONE',  ( 0.000000000000000000, 1.000000000000000000, 0.000000000000000000 ) ) ;
#312 = VERTEX_POINT ( 'NONE', #333 ) ;
#313 = EDGE_LOOP ( 'NONE', ( #528, #391, #72, #19 ) ) ;
#314 = APPLICATION_PROTOCOL_DEFINITION ( 'draft international standard', 'automotive_design', 1998, #141 ) ;
#315 = DIRECTION ( 'NONE',  ( 0.000000000000000000, 0.000000000000000000, -1.000000000000000000 ) ) ;
#316 = VERTEX_POINT ( 'NONE', #49 ) ;
#317 = DIRECTION ( 'NONE',  ( 1.000000000000000000, 0.000000000000000000, 0.000000000000000000 ) ) ;
#318 = VECTOR ( 'NONE', #442, 39.37007874015748143 ) ;
#319 = EDGE_CURVE ( 'NONE', #211, #397, #372, .T. ) ;
#320 = PRODUCT_DEFINITION_FORMATION_WITH_SPECIFIED_SOURCE ( 'ANY', '', #340, .NOT_KNOWN. ) ;
#321 = CARTESIAN_POINT ( 'NONE',  ( 1.000000000000000000, 0.000000000000000000, 0.6250000000000000000 ) ) ;
#322 = DIRECTION ( 'NONE',  ( 1.000000000000000000, 0.000000000000000000, 0.000000000000000000 ) ) ;
#323 = ADVANCED_FACE ( 'NONE', ( #286 ), #55, .T. ) ;
#324 = CARTESIAN_POINT ( 'NONE',  ( 0.000000000000000000, 0.000000000000000000, 0.6250000000000000000 ) ) ;
#325 = EDGE_CURVE ( 'NONE', #268, #204, #565, .T. ) ;
#326 = AXIS2_PLACEMENT_3D ( 'NONE', #412, #317, #500 ) ;
#327 = AXIS2_PLACEMENT_3D ( 'NONE', #509, #47, #511 ) ;
#328 =( CONVERSION_BASED_UNIT ( 'INCH', #133 ) LENGTH_UNIT ( ) NAMED_UNIT ( #460 ) );
#329 = AXIS2_PLACEMENT_3D ( 'NONE', #376, #517, #513 ) ;
#330 = DIRECTION ( 'NONE',  ( 1.000000000000000000, -0.000000000000000000, 0.000000000000000000 ) ) ;
#331 = FILL_AREA_STYLE ('',( #183 ) ) ;
#332 = DIRECTION ( 'NONE',  ( -1.000000000000000000, -0.000000000000000000, -0.000000000000000000 ) ) ;
#333 = CARTESIAN_POINT ( 'NONE',  ( 0.000000000000000000, -10.00000000000000000, 20.00000000000000000 ) ) ;
#334 = ORIENTED_EDGE ( 'NONE', *, *, #367, .T. ) ;
#335 = LENGTH_MEASURE_WITH_UNIT ( LENGTH_MEASURE( 0.02539999999999999897 ), #97 );
#336 = FACE_OUTER_BOUND ( 'NONE', #313, .T. ) ;
#337 = CARTESIAN_POINT ( 'NONE',  ( 0.000000000000000000, 0.000000000000000000, 0.000000000000000000 ) ) ;
#338 = DIRECTION ( 'NONE',  ( 1.000000000000000000, 0.000000000000000000, 0.000000000000000000 ) ) ;
#339 = LINE ( 'NONE', #521, #401 ) ;
#340 = PRODUCT ( 'ClosetRodAssembly', 'ClosetRodAssembly', '', ( #406 ) ) ;
#341 = AXIS2_PLACEMENT_3D ( 'NONE', #321, #120, #445 ) ;
#342 = CARTESIAN_POINT ( 'NONE',  ( 1.000000000000000000, 0.000000000000000000, 0.6250000000000000000 ) ) ;
#343 = PRESENTATION_LAYER_ASSIGNMENT (  '', '', ( #134 ) ) ;
#344 = ORIENTED_EDGE ( 'NONE', *, *, #486, .F. ) ;
#345 = ORIENTED_EDGE ( 'NONE', *, *, #129, .F. ) ;
#346 = FACE_OUTER_BOUND ( 'NONE', #132, .T. ) ;
#347 = SURFACE_STYLE_USAGE ( .BOTH. , #161 ) ;
#348 = ORIENTED_EDGE ( 'NONE', *, *, #278, .F. ) ;
#349 = EDGE_CURVE ( 'NONE', #27, #395, #95, .T. ) ;
#350 = EDGE_LOOP ( 'NONE', ( #591, #545, #489, #69 ) ) ;
#351 = ORIENTED_EDGE ( 'NONE', *, *, #129, .T. ) ;
#352 = ORIENTED_EDGE ( 'NONE', *, *, #529, .F. ) ;
#353 = DIRECTION ( 'NONE',  ( 0.000000000000000000, 0.000000000000000000, -1.000000000000000000 ) ) ;
#354 = EDGE_LOOP ( 'NONE', ( #124, #446, #352, #310 ) ) ;
#355 = VECTOR ( 'NONE', #518, 39.37007874015748143 ) ;
#356 = ORIENTED_EDGE ( 'NONE', *, *, #187, .T. ) ;
#357 = CONTEXT_DEPENDENT_SHAPE_REPRESENTATION ( #185, #570 ) ;
#358 = DIRECTION ( 'NONE',  ( 0.000000000000000000, 0.000000000000000000, -1.000000000000000000 ) ) ;
#359 = VERTEX_POINT ( 'NONE', #568 ) ;
#360 = ORIENTED_EDGE ( 'NONE', *, *, #252, .T. ) ;
#361 = DIRECTION ( 'NONE',  ( 1.000000000000000000, 0.000000000000000000, 0.000000000000000000 ) ) ;
#362 = EDGE_CURVE ( 'NONE', #109, #162, #232, .T. ) ;
#363 = DIRECTION ( 'NONE',  ( 1.000000000000000000, 0.000000000000000000, 0.000000000000000000 ) ) ;
#364 = VECTOR ( 'NONE', #556, 39.37007874015748143 ) ;
#365 = AXIS2_PLACEMENT_3D ( 'NONE', #257, #254, #438 ) ;
#366 = CARTESIAN_POINT ( 'NONE',  ( 0.000000000000000000, 0.000000000000000000, 0.000000000000000000 ) ) ;
#367 = EDGE_CURVE ( 'NONE', #578, #444, #107, .T. ) ;
#368 = EDGE_CURVE ( 'NONE', #441, #397, #189, .T. ) ;
#369 = VERTEX_POINT ( 'NONE', #288 ) ;
#370 = LINE ( 'NONE', #235, #205 ) ;
#371 = CARTESIAN_POINT ( 'NONE',  ( 0.000000000000000000, 0.000000000000000000, 0.000000000000000000 ) ) ;
#372 = CIRCLE ( 'NONE', #225, 0.6250000000000000000 ) ;
#373 = CARTESIAN_POINT ( 'NONE',  ( -62.00000000000000000, -0.6169481339626534666, 0.1000000000000000056 ) ) ;
#374 = DIRECTION ( 'NONE',  ( -1.000000000000000000, -0.000000000000000000, -0.000000000000000000 ) ) ;
#375 = CARTESIAN_POINT ( 'NONE',  ( 1.000000000000000000, -10.00000000000000000, -20.00000000000000000 ) ) ;
#376 = CARTESIAN_POINT ( 'NONE',  ( 0.000000000000000000, 0.000000000000000000, 0.000000000000000000 ) ) ;
#377 = DIRECTION ( 'NONE',  ( 1.000000000000000000, 0.000000000000000000, 0.000000000000000000 ) ) ;
#378 = EDGE_CURVE ( 'NONE', #211, #369, #425, .T. ) ;
#379 = DIRECTION ( 'NONE',  ( 0.000000000000000000, 0.000000000000000000, 1.000000000000000000 ) ) ;
#380 = CARTESIAN_POINT ( 'NONE',  ( 0.000000000000000000, 2.000000000000000000, 0.000000000000000000 ) ) ;
#381 = AXIS2_PLACEMENT_3D ( 'NONE', #292, #430, #56 ) ;
#382 = LINE ( 'NONE', #241, #236 ) ;
#383 = EDGE_CURVE ( 'NONE', #210, #537, #382, .T. ) ;
#384 = LINE ( 'NONE', #388, #127 ) ;
#385 = CARTESIAN_POINT ( 'NONE',  ( 0.000000000000000000, 2.000000000000000000, 0.000000000000000000 ) ) ;
#386 = CYLINDRICAL_SURFACE ( 'NONE', #381, 0.6250000000000001110 ) ;
#387 = DIRECTION ( 'NONE',  ( 0.000000000000000000, -1.000000000000000000, 0.000000000000000000 ) ) ;
#388 = CARTESIAN_POINT ( 'NONE',  ( 0.000000000000000000, 0.000000000000000000, -0.6250000000000000000 ) ) ;
#389 = PRESENTATION_LAYER_ASSIGNMENT (  '', '', ( #118 ) ) ;
#390 = PLANE ( 'NONE',  #73 ) ;
#391 = ORIENTED_EDGE ( 'NONE', *, *, #368, .F. ) ;
#392 = ORIENTED_EDGE ( 'NONE', *, *, #194, .T. ) ;
#393 = CARTESIAN_POINT ( 'NONE',  ( 1.000000000000000000, 0.000000000000000000, 20.00000000000000000 ) ) ;
#394 = ORIENTED_EDGE ( 'NONE', *, *, #264, .F. ) ;
#395 = VERTEX_POINT ( 'NONE', #519 ) ;
#396 = ORIENTED_EDGE ( 'NONE', *, *, #497, .T. ) ;
#397 = VERTEX_POINT ( 'NONE', #147 ) ;
#398 = SHAPE_DEFINITION_REPRESENTATION ( #251, #466 ) ;
#399 = LINE ( 'NONE', #273, #456 ) ;
#400 = ORIENTED_EDGE ( 'NONE', *, *, #149, .F. ) ;
#401 = VECTOR ( 'NONE', #387, 39.37007874015748143 ) ;
#402 = ORIENTED_EDGE ( 'NONE', *, *, #325, .T. ) ;
#403 = APPLICATION_PROTOCOL_DEFINITION ( 'draft international standard', 'automotive_design', 1998, #303 ) ;
#404 = ADVANCED_FACE ( 'NONE', ( #336 ), #99, .T. ) ;
#405 = CARTESIAN_POINT ( 'NONE',  ( 1.000000000000000000, 2.000000000000000000, 0.000000000000000000 ) ) ;
#406 = PRODUCT_CONTEXT ( 'NONE', #61, 'mechanical' ) ;
#407 = PLANE ( 'NONE',  #417 ) ;
#408 = DIRECTION ( 'NONE',  ( 0.000000000000000000, 0.000000000000000000, -1.000000000000000000 ) ) ;
#409 = EDGE_CURVE ( 'NONE', #395, #210, #198, .T. ) ;
#410 = AXIS2_PLACEMENT_3D ( 'NONE', #527, #338, #202 ) ;
#411 =( GEOMETRIC_REPRESENTATION_CONTEXT ( 3 ) GLOBAL_UNCERTAINTY_ASSIGNED_CONTEXT ( ( #159 ) ) GLOBAL_UNIT_ASSIGNED_CONTEXT ( ( #94, #473, #231 ) ) REPRESENTATION_CONTEXT ( 'NONE', 'WORKASPACE' ) );
#412 = CARTESIAN_POINT ( 'NONE',  ( -62.00000000000000000, 0.000000000000000000, 0.000000000000000000 ) ) ;
#413 = DIRECTION ( 'NONE',  ( -1.000000000000000000, -0.000000000000000000, -0.000000000000000000 ) ) ;
#414 = UNCERTAINTY_MEASURE_WITH_UNIT (LENGTH_MEASURE( 1.000000000000000082E-05 ), #328, 'distance_accuracy_value', 'NONE');
#415 = LINE ( 'NONE', #136, #364 ) ;
#416 = DIRECTION ( 'NONE',  ( 0.000000000000000000, 0.000000000000000000, -1.000000000000000000 ) ) ;
#417 = AXIS2_PLACEMENT_3D ( 'NONE', #495, #176, #220 ) ;
#418 = VECTOR ( 'NONE', #283, 39.37007874015748143 ) ;
#419 =( GEOMETRIC_REPRESENTATION_CONTEXT ( 3 ) GLOBAL_UNCERTAINTY_ASSIGNED_CONTEXT ( ( #145 ) ) GLOBAL_UNIT_ASSIGNED_CONTEXT ( ( #508, #470, #422 ) ) REPRESENTATION_CONTEXT ( 'NONE', 'WORKASPACE' ) );
#420 =( NAMED_UNIT ( * ) PLANE_ANGLE_UNIT ( ) SI_UNIT ( $, .RADIAN. ) );
#421 = EDGE_CURVE ( 'NONE', #173, #369, #562, .T. ) ;
#422 =( NAMED_UNIT ( * ) SI_UNIT ( $, .STERADIAN. ) SOLID_ANGLE_UNIT ( ) );
#423 = CARTESIAN_POINT ( 'NONE',  ( -62.00000000000000000, 0.000000000000000000, 0.000000000000000000 ) ) ;
#424 = DIRECTION ( 'NONE',  ( 0.000000000000000000, -1.000000000000000000, 0.000000000000000000 ) ) ;
#425 = LINE ( 'NONE', #104, #284 ) ;
#426 = EDGE_CURVE ( 'NONE', #312, #537, #280, .T. ) ;
#427 = COLOUR_RGB ( '',0.7921568627450980005, 0.8196078431372548767, 0.9333333333333333481 ) ;
#428 = CARTESIAN_POINT ( 'NONE',  ( 0.000000000000000000, 0.000000000000000000, 0.000000000000000000 ) ) ;
#429 = DIRECTION ( 'NONE',  ( 0.000000000000000000, 0.000000000000000000, -1.000000000000000000 ) ) ;
#430 = DIRECTION ( 'NONE',  ( 1.000000000000000000, 0.000000000000000000, 0.000000000000000000 ) ) ;
#431 = LENGTH_MEASURE_WITH_UNIT ( LENGTH_MEASURE( 0.02539999999999999897 ), #294 );
#432 = CYLINDRICAL_SURFACE ( 'NONE', #515, 0.6250000000000001110 ) ;
#433 = CARTESIAN_POINT ( 'NONE',  ( 1.000000000000000000, 0.000000000000000000, 0.000000000000000000 ) ) ;
#434 = ORIENTED_EDGE ( 'NONE', *, *, #228, .T. ) ;
#435 = ORIENTED_EDGE ( 'NONE', *, *, #362, .F. ) ;
#436 = LENGTH_MEASURE_WITH_UNIT ( LENGTH_MEASURE( 0.02539999999999999897 ), #296 );
#437 = AXIS2_PLACEMENT_3D ( 'NONE', #8, #57, #247 ) ;
#438 = DIRECTION ( 'NONE',  ( 0.000000000000000000, 0.000000000000000000, -1.000000000000000000 ) ) ;
#439 = ORIENTED_EDGE ( 'NONE', *, *, #82, .F. ) ;
#440 = MANIFOLD_SOLID_BREP ( 'Split Line2', #604 ) ;
#441 = VERTEX_POINT ( 'NONE', #112 ) ;
#442 = DIRECTION ( 'NONE',  ( 1.000000000000000000, 0.000000000000000000, 0.000000000000000000 ) ) ;
#443 = ORIENTED_EDGE ( 'NONE', *, *, #378, .T. ) ;
#444 = VERTEX_POINT ( 'NONE', #155 ) ;
#445 = DIRECTION ( 'NONE',  ( 1.000000000000000000, 0.000000000000000000, -0.000000000000000000 ) ) ;
#446 = ORIENTED_EDGE ( 'NONE', *, *, #214, .F. ) ;
#447 = EDGE_CURVE ( 'NONE', #53, #369, #139, .T. ) ;
#448 = ORIENTED_EDGE ( 'NONE', *, *, #26, .F. ) ;
#449 = DIRECTION ( 'NONE',  ( 0.000000000000000000, 0.000000000000000000, -1.000000000000000000 ) ) ;
#450 = VECTOR ( 'NONE', #358, 39.37007874015748143 ) ;
#451 = ITEM_DEFINED_TRANSFORMATION ( 'NONE', 'NONE', #458,  #551 ) ;
#452 = DIRECTION ( 'NONE',  ( -1.000000000000000000, -0.000000000000000000, -0.000000000000000000 ) ) ;
#453 = PRODUCT_DEFINITION ( 'UNKNOWN', '', #320, #227 ) ;
#454 = LINE ( 'NONE', #178, #233 ) ;
#455 = FACE_OUTER_BOUND ( 'NONE', #219, .T. ) ;
#456 = VECTOR ( 'NONE', #539, 39.37007874015748143 ) ;
#457 = AXIS2_PLACEMENT_3D ( 'NONE', #433, #115, #482 ) ;
#458 = AXIS2_PLACEMENT_3D ( 'NONE', #43, #237, #92 ) ;
#459 = CARTESIAN_POINT ( 'NONE',  ( 1.000000000000000000, 0.000000000000000000, 0.000000000000000000 ) ) ;
#460 = DIMENSIONAL_EXPONENTS ( 1.000000000000000000, 0.000000000000000000, 0.000000000000000000, 0.000000000000000000, 0.000000000000000000, 0.000000000000000000, 0.000000000000000000 ) ;
#461 = DIRECTION ( 'NONE',  ( 0.000000000000000000, 0.000000000000000000, 1.000000000000000000 ) ) ;
#462 = ORIENTED_EDGE ( 'NONE', *, *, #378, .F. ) ;
#463 = CARTESIAN_POINT ( 'NONE',  ( 0.000000000000000000, -10.00000000000000000, 0.000000000000000000 ) ) ;
#464 = ADVANCED_FACE ( 'NONE', ( #71 ), #66, .T. ) ;
#465 =( NAMED_UNIT ( * ) SI_UNIT ( $, .STERADIAN. ) SOLID_ANGLE_UNIT ( ) );
#466 = SHAPE_REPRESENTATION ( 'ClosetRodAssembly', ( #3, #458, #525, #157 ), #411 ) ;
#467 = DIRECTION ( 'NONE',  ( 0.000000000000000000, 0.000000000000000000, -1.000000000000000000 ) ) ;
#468 = VECTOR ( 'NONE', #191, 39.37007874015748143 ) ;
#469 = DIRECTION ( 'NONE',  ( 1.000000000000000000, -0.000000000000000000, -0.000000000000000000 ) ) ;
#470 =( NAMED_UNIT ( * ) PLANE_ANGLE_UNIT ( ) SI_UNIT ( $, .RADIAN. ) );
#471 = CARTESIAN_POINT ( 'NONE',  ( -62.00000000000000000, 0.6169481339626534666, 0.1000000000000000056 ) ) ;
#472 = ADVANCED_FACE ( 'NONE', ( #261 ), #484, .T. ) ;
#473 =( NAMED_UNIT ( * ) PLANE_ANGLE_UNIT ( ) SI_UNIT ( $, .RADIAN. ) );
#474 = CARTESIAN_POINT ( 'NONE',  ( 1.000000000000000000, 0.000000000000000000, -0.6250000000000000000 ) ) ;
#475 = EDGE_CURVE ( 'NONE', #164, #441, #593, .T. ) ;
#476 = FACE_OUTER_BOUND ( 'NONE', #354, .T. ) ;
#477 = CARTESIAN_POINT ( 'NONE',  ( 0.000000000000000000, 0.000000000000000000, 0.000000000000000000 ) ) ;
#478 = PRODUCT_DEFINITION_SHAPE ( 'NONE', 'NONE',  #193 ) ;
#479 = VECTOR ( 'NONE', #311, 39.37007874015748143 ) ;
#480 = AXIS2_PLACEMENT_3D ( 'NONE', #253, #572, #154 ) ;
#481 = DIRECTION ( 'NONE',  ( 0.000000000000000000, 0.000000000000000000, -1.000000000000000000 ) ) ;
#482 = DIRECTION ( 'NONE',  ( 0.000000000000000000, 0.000000000000000000, -1.000000000000000000 ) ) ;
#483 = FACE_OUTER_BOUND ( 'NONE', #267, .T. ) ;
#484 = PLANE ( 'NONE',  #100 ) ;
#485 = EDGE_LOOP ( 'NONE', ( #334, #77 ) ) ;
#486 = EDGE_CURVE ( 'NONE', #535, #4, #18, .T. ) ;
#487 = ORIENTED_EDGE ( 'NONE', *, *, #239, .T. ) ;
#488 = DIRECTION ( 'NONE',  ( 0.000000000000000000, 0.000000000000000000, -1.000000000000000000 ) ) ;
#489 = ORIENTED_EDGE ( 'NONE', *, *, #475, .T. ) ;
#490 = EDGE_LOOP ( 'NONE', ( #402, #80, #168, #434 ) ) ;
#491 = AXIS2_PLACEMENT_3D ( 'NONE', #428, #245, #488 ) ;
#492 = PRESENTATION_STYLE_ASSIGNMENT (( #347 ) ) ;
#493 = ORIENTED_EDGE ( 'NONE', *, *, #421, .F. ) ;
#494 = ORIENTED_EDGE ( 'NONE', *, *, #447, .T. ) ;
#495 = CARTESIAN_POINT ( 'NONE',  ( 1.000000000000000000, -10.00000000000000000, 0.000000000000000000 ) ) ;
#496 = ORIENTED_EDGE ( 'NONE', *, *, #529, .T. ) ;
#497 = EDGE_CURVE ( 'NONE', #173, #312, #339, .T. ) ;
#498 = ORIENTED_EDGE ( 'NONE', *, *, #426, .T. ) ;
#499 = LINE ( 'NONE', #594, #450 ) ;
#500 = DIRECTION ( 'NONE',  ( 0.000000000000000000, 0.000000000000000000, -1.000000000000000000 ) ) ;
#501 =( GEOMETRIC_REPRESENTATION_CONTEXT ( 3 ) GLOBAL_UNCERTAINTY_ASSIGNED_CONTEXT ( ( #557 ) ) GLOBAL_UNIT_ASSIGNED_CONTEXT ( ( #23, #184, #143 ) ) REPRESENTATION_CONTEXT ( 'NONE', 'WORKASPACE' ) );
#502 = LINE ( 'NONE', #275, #89 ) ;
#503 = FACE_OUTER_BOUND ( 'NONE', #485, .T. ) ;
#504 = FACE_OUTER_BOUND ( 'NONE', #350, .T. ) ;
#505 = DIMENSIONAL_EXPONENTS ( 1.000000000000000000, 0.000000000000000000, 0.000000000000000000, 0.000000000000000000, 0.000000000000000000, 0.000000000000000000, 0.000000000000000000 ) ;
#506 =( GEOMETRIC_REPRESENTATION_CONTEXT ( 3 ) GLOBAL_UNCERTAINTY_ASSIGNED_CONTEXT ( ( #414 ) ) GLOBAL_UNIT_ASSIGNED_CONTEXT ( ( #328, #420, #465 ) ) REPRESENTATION_CONTEXT ( 'NONE', 'WORKASPACE' ) );
#507 = CARTESIAN_POINT ( 'NONE',  ( -61.25000000000000000, 0.6169481339626534666, 0.1000000000000000056 ) ) ;
#508 =( CONVERSION_BASED_UNIT ( 'INCH', #335 ) LENGTH_UNIT ( ) NAMED_UNIT ( #505 ) );
#509 = CARTESIAN_POINT ( 'NONE',  ( -62.00000000000000000, 0.000000000000000000, 0.000000000000000000 ) ) ;
#510 =( LENGTH_UNIT ( ) NAMED_UNIT ( * ) SI_UNIT ( $, .METRE. ) );
#511 = DIRECTION ( 'NONE',  ( 0.000000000000000000, 0.000000000000000000, -1.000000000000000000 ) ) ;
#512 = PRESENTATION_STYLE_ASSIGNMENT (( #607 ) ) ;
#513 = DIRECTION ( 'NONE',  ( 1.000000000000000000, 0.000000000000000000, 0.000000000000000000 ) ) ;
#514 = DIRECTION ( 'NONE',  ( 0.000000000000000000, 1.000000000000000000, 0.000000000000000000 ) ) ;
#515 = AXIS2_PLACEMENT_3D ( 'NONE', #584, #65, #481 ) ;
#516 = ADVANCED_FACE ( 'NONE', ( #203 ), #390, .T. ) ;
#517 = DIRECTION ( 'NONE',  ( 0.000000000000000000, 0.000000000000000000, 1.000000000000000000 ) ) ;
#518 = DIRECTION ( 'NONE',  ( 0.000000000000000000, -1.000000000000000000, 0.000000000000000000 ) ) ;
#519 = CARTESIAN_POINT ( 'NONE',  ( 0.000000000000000000, 2.000000000000000000, -0.6250000000000000000 ) ) ;
#520 = FACE_OUTER_BOUND ( 'NONE', #122, .T. ) ;
#521 = CARTESIAN_POINT ( 'NONE',  ( 0.000000000000000000, 0.000000000000000000, 20.00000000000000000 ) ) ;
#522 = PRODUCT_DEFINITION_SHAPE ( 'NONE', 'NONE',  #609 ) ;
#523 = VECTOR ( 'NONE', #363, 39.37007874015748143 ) ;
#524 = VECTOR ( 'NONE', #135, 39.37007874015748143 ) ;
#525 = AXIS2_PLACEMENT_3D ( 'NONE', #285, #461, #240 ) ;
#526 = APPLICATION_CONTEXT ( 'automotive_design' ) ;
#527 = CARTESIAN_POINT ( 'NONE',  ( -62.00000000000000000, 0.000000000000000000, 0.000000000000000000 ) ) ;
#528 = ORIENTED_EDGE ( 'NONE', *, *, #538, .F. ) ;
#529 = EDGE_CURVE ( 'NONE', #217, #262, #605, .T. ) ;
#530 = EDGE_LOOP ( 'NONE', ( #255, #31, #260, #265, #44, #256, #567, #462 ) ) ;
#531 = FACE_OUTER_BOUND ( 'NONE', #530, .T. ) ;
#532 = ORIENTED_EDGE ( 'NONE', *, *, #325, .F. ) ;
#533 = ORIENTED_EDGE ( 'NONE', *, *, #409, .F. ) ;
#534 = DIRECTION ( 'NONE',  ( -1.000000000000000000, 0.000000000000000000, -0.000000000000000000 ) ) ;
#535 = VERTEX_POINT ( 'NONE', #106 ) ;
#536 = ADVANCED_FACE ( 'NONE', ( #103, #483 ), #432, .T. ) ;
#537 = VERTEX_POINT ( 'NONE', #249 ) ;
#538 = EDGE_CURVE ( 'NONE', #397, #395, #384, .T. ) ;
#539 = DIRECTION ( 'NONE',  ( 0.000000000000000000, 1.000000000000000000, 0.000000000000000000 ) ) ;
#540 = AXIS2_PLACEMENT_3D ( 'NONE', #393, #200, #111 ) ;
#541 = ORIENTED_EDGE ( 'NONE', *, *, #125, .T. ) ;
#542 = ORIENTED_EDGE ( 'NONE', *, *, #96, .T. ) ;
#543 = CONTEXT_DEPENDENT_SHAPE_REPRESENTATION ( #589, #522 ) ;
#544 = CARTESIAN_POINT ( 'NONE',  ( -61.25000000000000000, 0.000000000000000000, 0.000000000000000000 ) ) ;
#545 = ORIENTED_EDGE ( 'NONE', *, *, #558, .F. ) ;
#546 = VERTEX_POINT ( 'NONE', #571 ) ;
#547 = CARTESIAN_POINT ( 'NONE',  ( 1.000000000000000000, -10.00000000000000000, -20.00000000000000000 ) ) ;
#548 = ITEM_DEFINED_TRANSFORMATION ( 'NONE', 'NONE', #157,  #551 ) ;
#549 = FACE_OUTER_BOUND ( 'NONE', #121, .T. ) ;
#550 = CIRCLE ( 'NONE', #20, 0.6250000000000001110 ) ;
#551 = AXIS2_PLACEMENT_3D ( 'NONE', #371, #10, #150 ) ;
#552 = CONTEXT_DEPENDENT_SHAPE_REPRESENTATION ( #40, #575 ) ;
#553 = LINE ( 'NONE', #269, #479 ) ;
#554 = LINE ( 'NONE', #373, #576 ) ;
#555 = DIMENSIONAL_EXPONENTS ( 1.000000000000000000, 0.000000000000000000, 0.000000000000000000, 0.000000000000000000, 0.000000000000000000, 0.000000000000000000, 0.000000000000000000 ) ;
#556 = DIRECTION ( 'NONE',  ( -1.000000000000000000, -0.000000000000000000, -0.000000000000000000 ) ) ;
#557 = UNCERTAINTY_MEASURE_WITH_UNIT (LENGTH_MEASURE( 1.000000000000000082E-05 ), #23, 'distance_accuracy_value', 'NONE');
#558 = EDGE_CURVE ( 'NONE', #164, #211, #152, .T. ) ;
#559 = DIRECTION ( 'NONE',  ( 0.000000000000000000, 0.000000000000000000, 1.000000000000000000 ) ) ;
#560 = CIRCLE ( 'NONE', #293, 0.6250000000000001110 ) ;
#561 = CARTESIAN_POINT ( 'NONE',  ( -0.7500000000000004441, -0.6169481339626534666, 0.1000000000000000056 ) ) ;
#562 = LINE ( 'NONE', #385, #179 ) ;
#563 = DIRECTION ( 'NONE',  ( -1.000000000000000000, -0.000000000000000000, -0.000000000000000000 ) ) ;
#564 = CARTESIAN_POINT ( 'NONE',  ( 60.34964842644654937, 43.80588713794374911, 58.65622898145576158 ) ) ;
#565 = LINE ( 'NONE', #471, #309 ) ;
#566 = PRODUCT_RELATED_PRODUCT_CATEGORY ( 'part', '', ( #291 ) ) ;
#567 = ORIENTED_EDGE ( 'NONE', *, *, #421, .T. ) ;
#568 = CARTESIAN_POINT ( 'NONE',  ( -62.00000000000000000, 7.654042494670959086E-17, 0.6250000000000001110 ) ) ;
#569 = DIRECTION ( 'NONE',  ( 0.000000000000000000, 0.000000000000000000, -1.000000000000000000 ) ) ;
#570 = PRODUCT_DEFINITION_SHAPE ( 'NONE', 'NONE',  #608 ) ;
#571 = CARTESIAN_POINT ( 'NONE',  ( -62.00000000000000000, 0.000000000000000000, -0.6250000000000001110 ) ) ;
#572 = DIRECTION ( 'NONE',  ( 1.000000000000000000, -0.000000000000000000, -0.000000000000000000 ) ) ;
#573 = CARTESIAN_POINT ( 'NONE',  ( 1.000000000000000000, 2.000000000000000000, 0.000000000000000000 ) ) ;
#574 = ADVANCED_FACE ( 'NONE', ( #476 ), #301, .T. ) ;
#575 = PRODUCT_DEFINITION_SHAPE ( 'NONE', 'NONE',  #610 ) ;
#576 = VECTOR ( 'NONE', #48, 39.37007874015748143 ) ;
#577 =( GEOMETRIC_REPRESENTATION_CONTEXT ( 3 ) GLOBAL_UNCERTAINTY_ASSIGNED_CONTEXT ( ( #137 ) ) GLOBAL_UNIT_ASSIGNED_CONTEXT ( ( #250, #297, #108 ) ) REPRESENTATION_CONTEXT ( 'NONE', 'WORKASPACE' ) );
#578 = VERTEX_POINT ( 'NONE', #62 ) ;
#579 = DIRECTION ( 'NONE',  ( 0.000000000000000000, 0.000000000000000000, 1.000000000000000000 ) ) ;
#580 = FACE_BOUND ( 'NONE', #174, .T. ) ;
#581 = DIRECTION ( 'NONE',  ( -0.000000000000000000, 1.000000000000000000, 0.000000000000000000 ) ) ;
#582 = ORIENTED_EDGE ( 'NONE', *, *, #295, .F. ) ;
#583 = ORIENTED_EDGE ( 'NONE', *, *, #447, .F. ) ;
#584 = CARTESIAN_POINT ( 'NONE',  ( -62.00000000000000000, 0.000000000000000000, 0.000000000000000000 ) ) ;
#585 = DIRECTION ( 'NONE',  ( 0.000000000000000000, 0.000000000000000000, -1.000000000000000000 ) ) ;
#586 = ORIENTED_EDGE ( 'NONE', *, *, #228, .F. ) ;
#587 = PRODUCT_RELATED_PRODUCT_CATEGORY ( 'part', '', ( #340 ) ) ;
#588 = ADVANCED_FACE ( 'NONE', ( #520, #580 ), #386, .T. ) ;
#589 =( REPRESENTATION_RELATIONSHIP ('NONE','NONE', #466, #13 ) REPRESENTATION_RELATIONSHIP_WITH_TRANSFORMATION ( #221 )SHAPE_REPRESENTATION_RELATIONSHIP( ) );
#590 = ORIENTED_EDGE ( 'NONE', *, *, #105, .T. ) ;
#591 = ORIENTED_EDGE ( 'NONE', *, *, #319, .F. ) ;
#592 = ORIENTED_EDGE ( 'NONE', *, *, #105, .F. ) ;
#593 = CIRCLE ( 'NONE', #457, 0.6250000000000000000 ) ;
#594 = CARTESIAN_POINT ( 'NONE',  ( 1.000000000000000000, -10.00000000000000000, 0.000000000000000000 ) ) ;
#595 = AXIS2_PLACEMENT_3D ( 'NONE', #423, #377, #102 ) ;
#596 = ORIENTED_EDGE ( 'NONE', *, *, #148, .F. ) ;
#597 = ADVANCED_FACE ( 'NONE', ( #346 ), #14, .F. ) ;
#598 = EDGE_LOOP ( 'NONE', ( #448, #532, #586, #344 ) ) ;
#599 = PRODUCT_CONTEXT ( 'NONE', #303, 'mechanical' ) ;
#600 = CARTESIAN_POINT ( 'NONE',  ( -62.00000000000000000, 7.654042494670959086E-17, 0.6250000000000001110 ) ) ;
#601 = CARTESIAN_POINT ( 'NONE',  ( -62.00000000000000000, 0.000000000000000000, -0.6250000000000001110 ) ) ;
#602 = ADVANCED_FACE ( 'NONE', ( #531 ), #160, .F. ) ;
#603 = FACE_OUTER_BOUND ( 'NONE', #67, .T. ) ;
#604 = CLOSED_SHELL ( 'NONE', ( #536, #588, #574, #323, #171, #59 ) ) ;
#605 = CIRCLE ( 'NONE', #480, 0.6250000000000001110 ) ;
#606 = CARTESIAN_POINT ( 'NONE',  ( -61.25000000000000000, 0.000000000000000000, 0.000000000000000000 ) ) ;
#607 = SURFACE_STYLE_USAGE ( .BOTH. , #182 ) ;
#608 = NEXT_ASSEMBLY_USAGE_OCCURRENCE ( 'NAUO1', ' ', ' ', #453, #193, $ ) ;
#609 = NEXT_ASSEMBLY_USAGE_OCCURRENCE ( 'NAUO2', ' ', ' ', #453, #41, $ ) ;
#610 = NEXT_ASSEMBLY_USAGE_OCCURRENCE ( 'NAUO3', ' ', ' ', #453, #41, $ ) ;
ENDSEC;
END-ISO-10303-21;
